<svg width="679" height="275" viewBox="0 0 679 275" fill="none" xmlns="http://www.w3.org/2000/svg">
<g filter="url(#filter0_d_5_356)">
<rect x="49.373" y="81.2432" width="573" height="145" rx="25" transform="rotate(-3.2271 49.373 81.2432)" fill="url(#paint0_linear_5_356)"/>
</g>
<g filter="url(#filter1_d_5_356)">
<rect x="53" y="65" width="573" height="145" rx="25" fill="white"/>
</g>
<path d="M196.585 160H204.588V158.594H198.17V154.145H204.077V152.739H198.17V148.315H204.486V146.909H196.585V160ZM208.263 150.182H206.525L209.644 155.091L206.525 160H208.263L210.616 156.19L212.968 160H214.707L211.536 155.091L214.707 150.182H212.968L210.616 154.196L208.263 150.182ZM216.859 163.682H218.368V158.491H218.496C218.828 159.028 219.467 160.205 221.359 160.205C223.814 160.205 225.527 158.236 225.527 155.116C225.527 152.023 223.814 150.054 221.334 150.054C219.416 150.054 218.828 151.23 218.496 151.741H218.317V150.182H216.859V163.682ZM218.342 155.091C218.342 152.892 219.314 151.409 221.155 151.409C223.072 151.409 224.018 153.02 224.018 155.091C224.018 157.188 223.047 158.849 221.155 158.849C219.339 158.849 218.342 157.315 218.342 155.091ZM229.336 146.909H227.828V160H229.336V146.909ZM234.989 160.23C236.702 160.23 237.597 159.31 237.903 158.67H237.98V160H239.489V153.531C239.489 150.412 237.111 150.054 235.858 150.054C234.375 150.054 232.688 150.565 231.92 152.355L233.352 152.866C233.685 152.151 234.471 151.384 235.909 151.384C237.296 151.384 237.98 152.119 237.98 153.378V153.429C237.98 154.158 237.239 154.094 235.449 154.324C233.627 154.56 231.639 154.963 231.639 157.213C231.639 159.131 233.122 160.23 234.989 160.23ZM235.219 158.875C234.017 158.875 233.148 158.338 233.148 157.29C233.148 156.139 234.196 155.781 235.372 155.628C236.011 155.551 237.724 155.372 237.98 155.065V156.446C237.98 157.673 237.009 158.875 235.219 158.875ZM242.242 160H243.751V150.182H242.242V160ZM243.009 148.545C243.597 148.545 244.083 148.085 244.083 147.523C244.083 146.96 243.597 146.5 243.009 146.5C242.421 146.5 241.935 146.96 241.935 147.523C241.935 148.085 242.421 148.545 243.009 148.545ZM248.022 154.094C248.022 152.381 249.083 151.409 250.528 151.409C251.928 151.409 252.778 152.323 252.778 153.864V160H254.286V153.761C254.286 151.256 252.95 150.054 250.962 150.054C249.479 150.054 248.559 150.719 248.099 151.716H247.971V150.182H246.513V160H248.022V154.094ZM269.06 152.381C268.587 150.987 267.526 150.054 265.583 150.054C263.512 150.054 261.977 151.23 261.977 152.892C261.977 154.247 262.783 155.155 264.585 155.577L266.222 155.96C267.213 156.19 267.679 156.663 267.679 157.341C267.679 158.185 266.784 158.875 265.378 158.875C264.144 158.875 263.371 158.344 263.102 157.29L261.671 157.648C262.022 159.316 263.396 160.205 265.404 160.205C267.686 160.205 269.239 158.958 269.239 157.264C269.239 155.896 268.382 155.033 266.631 154.605L265.173 154.247C264.01 153.96 263.486 153.57 263.486 152.815C263.486 151.972 264.381 151.358 265.583 151.358C266.899 151.358 267.443 152.087 267.705 152.764L269.06 152.381ZM275.498 160.205C278.157 160.205 279.947 158.185 279.947 155.142C279.947 152.074 278.157 150.054 275.498 150.054C272.839 150.054 271.049 152.074 271.049 155.142C271.049 158.185 272.839 160.205 275.498 160.205ZM275.498 158.849C273.478 158.849 272.558 157.111 272.558 155.142C272.558 153.173 273.478 151.409 275.498 151.409C277.518 151.409 278.439 153.173 278.439 155.142C278.439 157.111 277.518 158.849 275.498 158.849ZM282.25 160H283.758V153.864C283.758 152.425 284.807 151.409 285.983 151.409C287.127 151.409 287.926 152.157 287.926 153.276V160H289.46V153.608C289.46 152.342 290.253 151.409 291.633 151.409C292.707 151.409 293.628 151.978 293.628 153.429V160H295.136V153.429C295.136 151.121 293.896 150.054 292.145 150.054C290.738 150.054 289.709 150.7 289.204 151.716H289.102C288.616 150.668 287.76 150.054 286.469 150.054C285.19 150.054 284.244 150.668 283.835 151.716H283.707V150.182H282.25V160ZM302.011 160.205C304.005 160.205 305.463 159.207 305.923 157.724L304.465 157.315C304.082 158.338 303.193 158.849 302.011 158.849C300.24 158.849 299.019 157.705 298.949 155.602H306.076V154.963C306.076 151.307 303.903 150.054 301.857 150.054C299.198 150.054 297.434 152.151 297.434 155.168C297.434 158.185 299.173 160.205 302.011 160.205ZM298.949 154.298C299.051 152.771 300.132 151.409 301.857 151.409C303.494 151.409 304.542 152.636 304.542 154.298H298.949ZM317.422 160.205C319.595 160.205 321.027 158.875 321.283 157.136H319.774C319.493 158.21 318.598 158.849 317.422 158.849C315.632 158.849 314.482 157.366 314.482 155.091C314.482 152.866 315.658 151.409 317.422 151.409C318.752 151.409 319.544 152.227 319.774 153.122H321.283C321.027 151.281 319.468 150.054 317.396 150.054C314.737 150.054 312.973 152.151 312.973 155.142C312.973 158.082 314.661 160.205 317.422 160.205ZM327.477 160.205C330.136 160.205 331.926 158.185 331.926 155.142C331.926 152.074 330.136 150.054 327.477 150.054C324.818 150.054 323.028 152.074 323.028 155.142C323.028 158.185 324.818 160.205 327.477 160.205ZM327.477 158.849C325.457 158.849 324.536 157.111 324.536 155.142C324.536 153.173 325.457 151.409 327.477 151.409C329.497 151.409 330.417 153.173 330.417 155.142C330.417 157.111 329.497 158.849 327.477 158.849ZM337.936 160.205C339.828 160.205 340.467 159.028 340.799 158.491H340.978V160H342.436V146.909H340.927V151.741H340.799C340.467 151.23 339.879 150.054 337.961 150.054C335.481 150.054 333.768 152.023 333.768 155.116C333.768 158.236 335.481 160.205 337.936 160.205ZM338.14 158.849C336.248 158.849 335.277 157.188 335.277 155.091C335.277 153.02 336.223 151.409 338.14 151.409C339.981 151.409 340.953 152.892 340.953 155.091C340.953 157.315 339.956 158.849 338.14 158.849ZM349.525 160.205C351.519 160.205 352.976 159.207 353.436 157.724L351.979 157.315C351.596 158.338 350.707 158.849 349.525 158.849C347.754 158.849 346.533 157.705 346.463 155.602H353.59V154.963C353.59 151.307 351.417 150.054 349.371 150.054C346.712 150.054 344.948 152.151 344.948 155.168C344.948 158.185 346.686 160.205 349.525 160.205ZM346.463 154.298C346.565 152.771 347.645 151.409 349.371 151.409C351.007 151.409 352.056 152.636 352.056 154.298H346.463ZM361.152 160H362.609V158.491H362.788C363.12 159.028 363.76 160.205 365.652 160.205C368.106 160.205 369.819 158.236 369.819 155.116C369.819 152.023 368.106 150.054 365.626 150.054C363.708 150.054 363.12 151.23 362.788 151.741H362.66V146.909H361.152V160ZM362.635 155.091C362.635 152.892 363.606 151.409 365.447 151.409C367.365 151.409 368.311 153.02 368.311 155.091C368.311 157.188 367.339 158.849 365.447 158.849C363.632 158.849 362.635 157.315 362.635 155.091ZM375.016 160.23C376.729 160.23 377.624 159.31 377.931 158.67H378.007V160H379.516V153.531C379.516 150.412 377.138 150.054 375.885 150.054C374.402 150.054 372.715 150.565 371.948 152.355L373.38 152.866C373.712 152.151 374.498 151.384 375.936 151.384C377.324 151.384 378.007 152.119 378.007 153.378V153.429C378.007 154.158 377.266 154.094 375.476 154.324C373.654 154.56 371.667 154.963 371.667 157.213C371.667 159.131 373.15 160.23 375.016 160.23ZM375.246 158.875C374.044 158.875 373.175 158.338 373.175 157.29C373.175 156.139 374.223 155.781 375.4 155.628C376.039 155.551 377.752 155.372 378.007 155.065V156.446C378.007 157.673 377.036 158.875 375.246 158.875ZM389.224 152.381C388.751 150.987 387.69 150.054 385.747 150.054C383.676 150.054 382.142 151.23 382.142 152.892C382.142 154.247 382.947 155.155 384.749 155.577L386.386 155.96C387.377 156.19 387.843 156.663 387.843 157.341C387.843 158.185 386.948 158.875 385.542 158.875C384.308 158.875 383.535 158.344 383.267 157.29L381.835 157.648C382.186 159.316 383.561 160.205 385.568 160.205C387.85 160.205 389.403 158.958 389.403 157.264C389.403 155.896 388.546 155.033 386.795 154.605L385.338 154.247C384.174 153.96 383.65 153.57 383.65 152.815C383.65 151.972 384.545 151.358 385.747 151.358C387.063 151.358 387.607 152.087 387.869 152.764L389.224 152.381ZM395.79 160.205C397.784 160.205 399.242 159.207 399.702 157.724L398.245 157.315C397.861 158.338 396.973 158.849 395.79 158.849C394.02 158.849 392.799 157.705 392.728 155.602H399.855V154.963C399.855 151.307 397.682 150.054 395.637 150.054C392.978 150.054 391.213 152.151 391.213 155.168C391.213 158.185 392.952 160.205 395.79 160.205ZM392.728 154.298C392.831 152.771 393.911 151.409 395.637 151.409C397.273 151.409 398.321 152.636 398.321 154.298H392.728ZM405.858 160.205C407.75 160.205 408.389 159.028 408.721 158.491H408.9V160H410.358V146.909H408.849V151.741H408.721C408.389 151.23 407.801 150.054 405.883 150.054C403.403 150.054 401.69 152.023 401.69 155.116C401.69 158.236 403.403 160.205 405.858 160.205ZM406.062 158.849C404.17 158.849 403.199 157.188 403.199 155.091C403.199 153.02 404.145 151.409 406.062 151.409C407.903 151.409 408.875 152.892 408.875 155.091C408.875 157.315 407.877 158.849 406.062 158.849ZM422.381 160.205C425.04 160.205 426.83 158.185 426.83 155.142C426.83 152.074 425.04 150.054 422.381 150.054C419.722 150.054 417.932 152.074 417.932 155.142C417.932 158.185 419.722 160.205 422.381 160.205ZM422.381 158.849C420.361 158.849 419.441 157.111 419.441 155.142C419.441 153.173 420.361 151.409 422.381 151.409C424.401 151.409 425.321 153.173 425.321 155.142C425.321 157.111 424.401 158.849 422.381 158.849ZM430.641 154.094C430.641 152.381 431.702 151.409 433.147 151.409C434.547 151.409 435.397 152.323 435.397 153.864V160H436.905V153.761C436.905 151.256 435.569 150.054 433.581 150.054C432.099 150.054 431.178 150.719 430.718 151.716H430.59V150.182H429.133V160H430.641V154.094ZM448.994 150.182H446.898V147.83H445.389V150.182H443.906V151.46H445.389V157.597C445.389 159.31 446.77 160.128 448.048 160.128C448.611 160.128 448.969 160.026 449.173 159.949L448.866 158.594C448.739 158.619 448.534 158.67 448.202 158.67C447.537 158.67 446.898 158.466 446.898 157.188V151.46H448.994V150.182ZM452.983 154.094C452.983 152.381 454.076 151.409 455.565 151.409C456.984 151.409 457.841 152.304 457.841 153.864V160H459.349V153.761C459.349 151.237 458.007 150.054 456 150.054C454.453 150.054 453.571 150.7 453.111 151.716H452.983V146.909H451.474V160H452.983V154.094ZM466.226 160.205C468.22 160.205 469.677 159.207 470.138 157.724L468.68 157.315C468.297 158.338 467.408 158.849 466.226 158.849C464.455 158.849 463.234 157.705 463.164 155.602H470.291V154.963C470.291 151.307 468.118 150.054 466.072 150.054C463.413 150.054 461.649 152.151 461.649 155.168C461.649 158.185 463.388 160.205 466.226 160.205ZM463.164 154.298C463.266 152.771 464.346 151.409 466.072 151.409C467.709 151.409 468.757 152.636 468.757 154.298H463.164ZM484.603 152.381C484.13 150.987 483.069 150.054 481.126 150.054C479.055 150.054 477.52 151.23 477.52 152.892C477.52 154.247 478.326 155.155 480.128 155.577L481.765 155.96C482.756 156.19 483.222 156.663 483.222 157.341C483.222 158.185 482.327 158.875 480.921 158.875C479.687 158.875 478.914 158.344 478.645 157.29L477.214 157.648C477.565 159.316 478.939 160.205 480.947 160.205C483.229 160.205 484.782 158.958 484.782 157.264C484.782 155.896 483.925 155.033 482.174 154.605L480.716 154.247C479.553 153.96 479.029 153.57 479.029 152.815C479.029 151.972 479.924 151.358 481.126 151.358C482.442 151.358 482.986 152.087 483.248 152.764L484.603 152.381ZM488.024 163.682C489.386 163.682 490.344 162.96 490.913 161.432L495.094 150.207L493.445 150.182L490.734 158.006H490.632L487.922 150.182H486.286L489.916 160.051L489.635 160.818C489.085 162.314 488.408 162.455 487.308 162.173L486.925 163.503C487.078 163.58 487.513 163.682 488.024 163.682ZM498.598 154.094C498.598 152.381 499.659 151.409 501.104 151.409C502.504 151.409 503.354 152.323 503.354 153.864V160H504.862V153.761C504.862 151.256 503.526 150.054 501.539 150.054C500.056 150.054 499.135 150.719 498.675 151.716H498.547V150.182H497.09V160H498.598V154.094ZM511.889 150.182H509.792V147.83H508.284V150.182H506.801V151.46H508.284V157.597C508.284 159.31 509.664 160.128 510.943 160.128C511.505 160.128 511.863 160.026 512.068 159.949L511.761 158.594C511.633 158.619 511.429 158.67 511.096 158.67C510.431 158.67 509.792 158.466 509.792 157.188V151.46H511.889V150.182ZM517.047 160.23C518.76 160.23 519.655 159.31 519.962 158.67H520.039V160H521.547V153.531C521.547 150.412 519.169 150.054 517.917 150.054C516.434 150.054 514.746 150.565 513.979 152.355L515.411 152.866C515.743 152.151 516.529 151.384 517.968 151.384C519.355 151.384 520.039 152.119 520.039 153.378V153.429C520.039 154.158 519.297 154.094 517.507 154.324C515.686 154.56 513.698 154.963 513.698 157.213C513.698 159.131 515.181 160.23 517.047 160.23ZM517.277 158.875C516.076 158.875 515.206 158.338 515.206 157.29C515.206 156.139 516.255 155.781 517.431 155.628C518.07 155.551 519.783 155.372 520.039 155.065V156.446C520.039 157.673 519.067 158.875 517.277 158.875ZM525.426 150.182H523.687L526.806 155.091L523.687 160H525.426L527.778 156.19L530.13 160H531.869L528.698 155.091L531.869 150.182H530.13L527.778 154.196L525.426 150.182ZM196.381 185.682H197.889V180.491H198.017C198.349 181.028 198.989 182.205 200.881 182.205C203.335 182.205 205.048 180.236 205.048 177.116C205.048 174.023 203.335 172.054 200.855 172.054C198.938 172.054 198.349 173.23 198.017 173.741H197.838V172.182H196.381V185.682ZM197.864 177.091C197.864 174.892 198.835 173.409 200.676 173.409C202.594 173.409 203.54 175.02 203.54 177.091C203.54 179.188 202.568 180.849 200.676 180.849C198.861 180.849 197.864 179.315 197.864 177.091ZM207.349 182H208.858V175.787C208.858 174.457 209.906 173.486 211.338 173.486C211.741 173.486 212.156 173.562 212.259 173.588V172.054C212.086 172.041 211.69 172.028 211.466 172.028C210.29 172.028 209.267 172.693 208.909 173.665H208.807V172.182H207.349V182ZM217.737 182.205C220.396 182.205 222.185 180.185 222.185 177.142C222.185 174.074 220.396 172.054 217.737 172.054C215.077 172.054 213.288 174.074 213.288 177.142C213.288 180.185 215.077 182.205 217.737 182.205ZM217.737 180.849C215.717 180.849 214.796 179.111 214.796 177.142C214.796 175.173 215.717 173.409 217.737 173.409C219.756 173.409 220.677 175.173 220.677 177.142C220.677 179.111 219.756 180.849 217.737 180.849ZM232.165 172.182H230.529L227.818 180.006H227.716L225.006 172.182H223.369L227 182H228.534L232.165 172.182ZM234.156 182H235.665V172.182H234.156V182ZM234.923 170.545C235.511 170.545 235.997 170.085 235.997 169.523C235.997 168.96 235.511 168.5 234.923 168.5C234.335 168.5 233.849 168.96 233.849 169.523C233.849 170.085 234.335 170.545 234.923 170.545ZM242.135 182.205C244.027 182.205 244.666 181.028 244.999 180.491H245.178V182H246.635V168.909H245.126V173.741H244.999C244.666 173.23 244.078 172.054 242.161 172.054C239.68 172.054 237.967 174.023 237.967 177.116C237.967 180.236 239.68 182.205 242.135 182.205ZM242.339 180.849C240.447 180.849 239.476 179.188 239.476 177.091C239.476 175.02 240.422 173.409 242.339 173.409C244.18 173.409 245.152 174.892 245.152 177.091C245.152 179.315 244.155 180.849 242.339 180.849ZM253.724 182.205C255.718 182.205 257.175 181.207 257.636 179.724L256.178 179.315C255.795 180.338 254.906 180.849 253.724 180.849C251.953 180.849 250.732 179.705 250.662 177.602H257.789V176.963C257.789 173.307 255.616 172.054 253.57 172.054C250.911 172.054 249.147 174.151 249.147 177.168C249.147 180.185 250.886 182.205 253.724 182.205ZM250.662 176.298C250.764 174.771 251.844 173.409 253.57 173.409C255.207 173.409 256.255 174.636 256.255 176.298H250.662ZM263.791 182.205C265.683 182.205 266.322 181.028 266.655 180.491H266.834V182H268.291V168.909H266.783V173.741H266.655C266.322 173.23 265.734 172.054 263.817 172.054C261.337 172.054 259.624 174.023 259.624 177.116C259.624 180.236 261.337 182.205 263.791 182.205ZM263.996 180.849C262.104 180.849 261.132 179.188 261.132 177.091C261.132 175.02 262.078 173.409 263.996 173.409C265.837 173.409 266.808 174.892 266.808 177.091C266.808 179.315 265.811 180.849 263.996 180.849Z" fill="black" fill-opacity="0.6"/>
<path d="M205.943 89.1477C205.545 86.6591 203.597 85.2045 201.136 85.2045C198.125 85.2045 195.903 87.4602 195.903 91.1818C195.903 94.9034 198.114 97.1591 201.136 97.1591C203.693 97.1591 205.562 95.5568 205.943 93.2557L204.17 93.25C203.869 94.7386 202.619 95.5568 201.148 95.5568C199.153 95.5568 197.648 94.0284 197.648 91.1818C197.648 88.358 199.148 86.8068 201.153 86.8068C202.636 86.8068 203.881 87.642 204.17 89.1477H205.943ZM211.584 97.1761C214.044 97.1761 215.652 95.375 215.652 92.6761C215.652 89.9602 214.044 88.1591 211.584 88.1591C209.124 88.1591 207.516 89.9602 207.516 92.6761C207.516 95.375 209.124 97.1761 211.584 97.1761ZM211.589 95.75C209.982 95.75 209.232 94.3466 209.232 92.6705C209.232 91 209.982 89.5795 211.589 89.5795C213.186 89.5795 213.936 91 213.936 92.6705C213.936 94.3466 213.186 95.75 211.589 95.75ZM219.247 91.8182C219.247 90.4261 220.099 89.6307 221.281 89.6307C222.435 89.6307 223.134 90.3864 223.134 91.6534V97H224.832V91.4489C224.832 89.2898 223.645 88.1591 221.861 88.1591C220.548 88.1591 219.69 88.767 219.287 89.6932H219.179V88.2727H217.548V97H219.247V91.8182ZM231.185 88.2727H229.395V86.1818H227.696V88.2727H226.418V89.6364H227.696V94.7898C227.69 96.375 228.901 97.142 230.241 97.1136C230.781 97.108 231.145 97.0057 231.344 96.9318L231.037 95.5284C230.923 95.5511 230.713 95.6023 230.44 95.6023C229.889 95.6023 229.395 95.4205 229.395 94.4375V89.6364H231.185V88.2727ZM236.732 97.1761C238.635 97.1761 239.982 96.2386 240.368 94.8182L238.76 94.5284C238.453 95.3523 237.714 95.7727 236.749 95.7727C235.294 95.7727 234.317 94.8295 234.271 93.1477H240.476V92.5455C240.476 89.392 238.589 88.1591 236.612 88.1591C234.18 88.1591 232.578 90.0114 232.578 92.6932C232.578 95.4034 234.158 97.1761 236.732 97.1761ZM234.277 91.875C234.345 90.6364 235.243 89.5625 236.624 89.5625C237.942 89.5625 238.805 90.5398 238.811 91.875H234.277ZM244.06 91.8182C244.06 90.4261 244.912 89.6307 246.094 89.6307C247.247 89.6307 247.946 90.3864 247.946 91.6534V97H249.645V91.4489C249.645 89.2898 248.457 88.1591 246.673 88.1591C245.361 88.1591 244.503 88.767 244.099 89.6932H243.991V88.2727H242.361V97H244.06V91.8182ZM255.997 88.2727H254.207V86.1818H252.509V88.2727H251.23V89.6364H252.509V94.7898C252.503 96.375 253.713 97.142 255.054 97.1136C255.594 97.108 255.957 97.0057 256.156 96.9318L255.849 95.5284C255.736 95.5511 255.526 95.6023 255.253 95.6023C254.702 95.6023 254.207 95.4205 254.207 94.4375V89.6364H255.997V88.2727Z" fill="#515151" fill-opacity="0.6"/>
<path d="M197.17 133H213.176V130.188H200.341V121.29H212.153V118.477H200.341V109.631H212.972V106.818H197.17V133ZM220.527 113.364H217.05L223.288 123.182L217.05 133H220.527L225.232 125.381L229.936 133H233.413L227.072 123.182L233.413 113.364H229.936L225.232 121.392L220.527 113.364ZM237.718 140.364H240.735V129.983H240.991C241.656 131.057 242.934 133.409 246.718 133.409C251.627 133.409 255.054 129.472 255.054 123.233C255.054 117.045 251.627 113.108 246.667 113.108C242.832 113.108 241.656 115.46 240.991 116.483H240.633V113.364H237.718V140.364ZM240.684 123.182C240.684 118.784 242.627 115.818 246.309 115.818C250.145 115.818 252.037 119.04 252.037 123.182C252.037 127.375 250.093 130.699 246.309 130.699C242.679 130.699 240.684 127.631 240.684 123.182ZM262.673 106.818H259.656V133H262.673V106.818ZM273.977 133.46C277.403 133.46 279.193 131.619 279.807 130.341H279.96V133H282.977V120.062C282.977 113.824 278.222 113.108 275.716 113.108C272.75 113.108 269.375 114.131 267.841 117.71L270.705 118.733C271.369 117.301 272.942 115.767 275.818 115.767C278.592 115.767 279.96 117.237 279.96 119.756V119.858C279.96 121.315 278.477 121.188 274.898 121.648C271.254 122.121 267.278 122.926 267.278 127.426C267.278 131.261 270.244 133.46 273.977 133.46ZM274.438 130.75C272.034 130.75 270.295 129.676 270.295 127.58C270.295 125.278 272.392 124.562 274.744 124.256C276.023 124.102 279.449 123.744 279.96 123.131V125.892C279.96 128.347 278.017 130.75 274.438 130.75ZM288.484 133H291.501V113.364H288.484V133ZM290.018 110.091C291.194 110.091 292.166 109.17 292.166 108.045C292.166 106.92 291.194 106 290.018 106C288.842 106 287.87 106.92 287.87 108.045C287.87 109.17 288.842 110.091 290.018 110.091ZM300.044 121.188C300.044 117.761 302.166 115.818 305.055 115.818C307.855 115.818 309.555 117.646 309.555 120.727V133H312.572V120.523C312.572 115.511 309.901 113.108 305.925 113.108C302.959 113.108 301.118 114.438 300.197 116.432H299.942V113.364H297.027V133H300.044V121.188ZM349.688 115C348.716 109.631 344.421 106.46 339.154 106.46C332.455 106.46 327.597 111.625 327.597 119.909C327.597 128.193 332.455 133.358 339.154 133.358C344.421 133.358 348.716 130.188 349.688 124.818H346.517C345.75 128.449 342.631 130.392 339.154 130.392C334.398 130.392 330.665 126.71 330.665 119.909C330.665 113.108 334.398 109.426 339.154 109.426C342.631 109.426 345.75 111.369 346.517 115H349.688ZM362.379 133.409C367.697 133.409 371.277 129.369 371.277 123.284C371.277 117.148 367.697 113.108 362.379 113.108C357.061 113.108 353.482 117.148 353.482 123.284C353.482 129.369 357.061 133.409 362.379 133.409ZM362.379 130.699C358.339 130.699 356.499 127.222 356.499 123.284C356.499 119.347 358.339 115.818 362.379 115.818C366.419 115.818 368.26 119.347 368.26 123.284C368.26 127.222 366.419 130.699 362.379 130.699ZM383.297 133.409C387.081 133.409 388.36 131.057 389.025 129.983H389.382V133H392.297V106.818H389.28V116.483H389.025C388.36 115.46 387.184 113.108 383.348 113.108C378.388 113.108 374.962 117.045 374.962 123.233C374.962 129.472 378.388 133.409 383.297 133.409ZM383.706 130.699C379.922 130.699 377.979 127.375 377.979 123.182C377.979 119.04 379.871 115.818 383.706 115.818C387.388 115.818 389.331 118.784 389.331 123.182C389.331 127.631 387.337 130.699 383.706 130.699ZM406.475 133.409C410.463 133.409 413.378 131.415 414.299 128.449L411.384 127.631C410.617 129.676 408.84 130.699 406.475 130.699C402.934 130.699 400.492 128.411 400.351 124.205H414.605V122.926C414.605 115.614 410.259 113.108 406.168 113.108C400.85 113.108 397.321 117.301 397.321 123.335C397.321 129.369 400.799 133.409 406.475 133.409ZM400.351 121.597C400.556 118.541 402.716 115.818 406.168 115.818C409.441 115.818 411.537 118.273 411.537 121.597H400.351Z" fill="black"/>
<g clip-path="url(#clip0_5_356)">
<path d="M113.667 129H147H113.667ZM113.667 142.334H127H113.667ZM130.333 169L117 155.667H107C105.232 155.667 103.536 154.964 102.286 153.714C101.036 152.464 100.333 150.768 100.333 149V122.334C100.333 120.565 101.036 118.87 102.286 117.619C103.536 116.369 105.232 115.667 107 115.667H153.667C155.435 115.667 157.13 116.369 158.381 117.619C159.631 118.87 160.333 120.565 160.333 122.334V149C160.333 150.768 159.631 152.464 158.381 153.714C157.13 154.964 155.435 155.667 153.667 155.667H143.667L130.333 169Z" stroke="black" stroke-width="6.66667" stroke-linecap="round" stroke-linejoin="round"/>
</g>
<defs>
<filter id="filter0_d_5_356" x="0.740051" y="0.353821" width="677.52" height="274.292" filterUnits="userSpaceOnUse" color-interpolation-filters="sRGB">
<feFlood flood-opacity="0" result="BackgroundImageFix"/>
<feColorMatrix in="SourceAlpha" type="matrix" values="0 0 0 0 0 0 0 0 0 0 0 0 0 0 0 0 0 0 127 0" result="hardAlpha"/>
<feOffset/>
<feGaussianBlur stdDeviation="25"/>
<feComposite in2="hardAlpha" operator="out"/>
<feColorMatrix type="matrix" values="0 0 0 0 0 0 0 0 0 0 0 0 0 0 0 0 0 0 0.12 0"/>
<feBlend mode="normal" in2="BackgroundImageFix" result="effect1_dropShadow_5_356"/>
<feBlend mode="normal" in="SourceGraphic" in2="effect1_dropShadow_5_356" result="shape"/>
</filter>
<filter id="filter1_d_5_356" x="3" y="15" width="673" height="245" filterUnits="userSpaceOnUse" color-interpolation-filters="sRGB">
<feFlood flood-opacity="0" result="BackgroundImageFix"/>
<feColorMatrix in="SourceAlpha" type="matrix" values="0 0 0 0 0 0 0 0 0 0 0 0 0 0 0 0 0 0 127 0" result="hardAlpha"/>
<feOffset/>
<feGaussianBlur stdDeviation="25"/>
<feComposite in2="hardAlpha" operator="out"/>
<feColorMatrix type="matrix" values="0 0 0 0 0 0 0 0 0 0 0 0 0 0 0 0 0 0 0.12 0"/>
<feBlend mode="normal" in2="BackgroundImageFix" result="effect1_dropShadow_5_356"/>
<feBlend mode="normal" in="SourceGraphic" in2="effect1_dropShadow_5_356" result="shape"/>
</filter>
<linearGradient id="paint0_linear_5_356" x1="44.3982" y1="162.849" x2="627.573" y2="140.643" gradientUnits="userSpaceOnUse">
<stop stop-color="#3C3C3C"/>
<stop offset="1" stop-color="#464646"/>
</linearGradient>
<clipPath id="clip0_5_356">
<rect width="90" height="103.333" fill="white" transform="translate(87 79)"/>
</clipPath>
</defs>
</svg>
