<svg width="23" height="23" viewBox="0 0 23 23" fill="none" xmlns="http://www.w3.org/2000/svg">
<path d="M7.66666 15.3333H5.75C5.24167 15.3333 4.75416 15.1314 4.39471 14.772C4.03527 14.4125 3.83333 13.925 3.83333 13.4167V5.75C3.83333 5.24167 4.03527 4.75416 4.39471 4.39471C4.75416 4.03527 5.24167 3.83334 5.75 3.83334H13.4167C13.925 3.83334 14.4125 4.03527 14.772 4.39471C15.1314 4.75416 15.3333 5.24167 15.3333 5.75V7.66667L7.66666 15.3333ZM9.58333 19.1667H17.25C17.7583 19.1667 18.2458 18.9647 18.6053 18.6053C18.9647 18.2458 19.1667 17.7583 19.1667 17.25V9.58334C19.1667 9.075 18.9647 8.58749 18.6053 8.22805C18.2458 7.8686 17.7583 7.66667 17.25 7.66667H9.58333C9.075 7.66667 8.58749 7.8686 8.22804 8.22805C7.8686 8.58749 7.66666 9.075 7.66666 9.58334V17.25C7.66666 17.7583 7.8686 18.2458 8.22804 18.6053C8.58749 18.9647 9.075 19.1667 9.58333 19.1667Z" stroke="#535353" stroke-width="2" stroke-linecap="round" stroke-linejoin="round"/>
</svg>
